<svg xmlns="http://www.w3.org/2000/svg" viewBox="0 0 948 2196" fill="currentColor" role="img" aria-label="De Club van 100">
  <title>De Club van 100</title>
  <g transform="translate(0.000000,2196.000000) scale(0.100000,-0.100000)">
    <path d="M8997 21941 c-3 -14 -15 -21 -38 -23 -30 -3 -35 -7 -39 -38 -4 -31&#xA;-9 -36 -40 -40 -31 -4 -35 -9 -38 -37 -2 -20 -11 -37 -23 -43 -11 -7 -19 -21&#xA;-19 -38 0 -19 -12 -37 -40 -62 -26 -23 -40 -44 -40 -60 0 -16 -14 -37 -40 -60&#xA;-26 -23 -40 -44 -40 -60 0 -16 -14 -37 -40 -60 -26 -23 -40 -44 -40 -60 0 -16&#xA;-14 -37 -40 -60 -25 -22 -40 -44 -40 -59 0 -15 -20 -43 -60 -81 -40 -38 -60&#xA;-66 -60 -81 0 -15 -15 -37 -40 -59 -25 -22 -40 -44 -40 -59 0 -15 -20 -43 -60&#xA;-81 -40 -38 -60 -66 -60 -81 0 -15 -15 -37 -40 -59 -26 -23 -40 -44 -40 -60 0&#xA;-16 -14 -37 -40 -60 -25 -22 -40 -44 -40 -59 0 -15 -20 -43 -60 -81 -40 -38&#xA;-60 -66 -60 -81 0 -15 -15 -37 -40 -59 -25 -22 -40 -44 -40 -59 0 -15 -20 -43&#xA;-60 -81 -38 -37 -60 -66 -60 -80 0 -14 -22 -43 -60 -80 -40 -38 -60 -66 -60&#xA;-81 0 -15 -15 -37 -40 -59 -26 -23 -40 -44 -40 -60 0 -16 -14 -37 -40 -60 -25&#xA;-22 -40 -44 -40 -59 0 -15 -20 -43 -60 -81 -38 -37 -60 -66 -60 -80 0 -14 -22&#xA;-43 -60 -80 -38 -37 -60 -66 -60 -80 0 -14 -22 -43 -60 -80 -40 -38 -60 -66&#xA;-60 -81 0 -15 -15 -37 -40 -59 -25 -22 -40 -44 -40 -59 0 -15 -20 -43 -60 -81&#xA;-38 -37 -60 -66 -60 -80 0 -14 -22 -43 -60 -80 -40 -38 -60 -66 -60 -81 0 -15&#xA;-15 -37 -40 -59 -25 -22 -40 -44 -40 -59 0 -15 -20 -43 -60 -81 -40 -38 -60&#xA;-66 -60 -81 0 -15 -15 -37 -40 -59 -25 -22 -40 -44 -40 -59 0 -15 -20 -43 -60&#xA;-81 -38 -37 -60 -66 -60 -80 0 -14 -22 -43 -60 -80 -38 -37 -60 -66 -60 -80 0&#xA;-14 -22 -43 -60 -80 -40 -38 -60 -66 -60 -81 0 -15 -15 -37 -40 -59 -25 -22&#xA;-40 -44 -40 -59 0 -15 -20 -43 -60 -81 -38 -37 -60 -66 -60 -80 0 -14 -22 -43&#xA;-60 -80 -38 -37 -60 -66 -60 -80 0 -14 -22 -43 -60 -80 -40 -38 -60 -66 -60&#xA;-81 0 -15 -15 -37 -40 -59 -25 -22 -40 -44 -40 -59 0 -15 -20 -43 -60 -81 -40&#xA;-38 -60 -66 -60 -81 0 -15 -15 -37 -40 -59 -25 -22 -40 -44 -40 -59 0 -15 -20&#xA;-43 -60 -81 -38 -37 -60 -66 -60 -80 0 -14 -22 -43 -60 -80 -38 -37 -60 -66&#xA;-60 -80 0 -14 -22 -43 -60 -80 -40 -38 -60 -66 -60 -81 0 -15 -15 -37 -40 -59&#xA;-25 -22 -40 -44 -40 -59 0 -15 -20 -43 -60 -81 -38 -37 -60 -66 -60 -80 0 -14&#xA;-22 -43 -60 -80 -38 -37 -60 -66 -60 -80 0 -14 -22 -43 -60 -80 -38 -37 -60&#xA;-66 -60 -80 0 -14 -22 -43 -60 -80 -40 -38 -60 -66 -60 -81 0 -15 -15 -37 -40&#xA;-59 -25 -22 -40 -44 -40 -59 0 -15 -20 -43 -60 -81 -40 -38 -60 -66 -60 -81 0&#xA;-15 -15 -37 -40 -59 -25 -22 -40 -44 -40 -59 0 -15 -20 -43 -60 -81 -38 -37&#xA;-60 -66 -60 -80 0 -14 -22 -43 -60 -80 -40 -38 -60 -66 -60 -81 0 -15 -15 -37&#xA;-40 -59 -25 -22 -40 -44 -40 -59 0 -15 -20 -43 -60 -81 -38 -37 -60 -66 -60&#xA;-80 0 -14 -22 -43 -60 -80 -38 -37 -60 -66 -60 -80 0 -14 -22 -43 -60 -80 -40&#xA;-38 -60 -66 -60 -81 0 -15 -15 -37 -40 -59 -25 -22 -40 -44 -40 -59 0 -15 -20&#xA;-43 -60 -81 -40 -38 -60 -66 -60 -81 0 -15 -15 -37 -40 -59 -25 -22 -40 -44&#xA;-40 -59 0 -15 -20 -43 -60 -81 -38 -37 -60 -66 -60 -80 0 -14 -22 -43 -60 -80&#xA;-40 -38 -60 -66 -60 -81 0 -15 -15 -37 -40 -59 -25 -22 -40 -44 -40 -59 0 -15&#xA;-20 -43 -60 -81 -38 -37 -60 -66 -60 -80 0 -14 -22 -43 -60 -80 -38 -37 -60&#xA;-66 -60 -80 0 -14 -22 -43 -60 -80 -40 -38 -60 -66 -60 -81 0 -15 -15 -37 -40&#xA;-59 -26 -23 -40 -44 -40 -60 0 -16 -14 -37 -40 -60 -25 -22 -40 -44 -40 -59 0&#xA;-15 -20 -43 -60 -81 -38 -37 -60 -66 -60 -80 0 -14 -22 -43 -60 -80 -40 -38&#xA;-60 -66 -60 -81 0 -15 -15 -37 -40 -59 -25 -22 -40 -44 -40 -59 0 -15 -20 -43&#xA;-60 -81 -40 -38 -60 -66 -60 -81 0 -15 -15 -37 -40 -59 -25 -22 -40 -44 -40&#xA;-59 0 -15 -20 -43 -60 -81 -40 -38 -60 -66 -60 -81 0 -15 -15 -37 -40 -59 -25&#xA;-22 -40 -44 -40 -59 0 -15 -20 -43 -60 -81 -40 -38 -60 -66 -60 -81 0 -15 -15&#xA;-37 -40 -59 -25 -22 -40 -44 -40 -59 0 -15 -20 -43 -60 -81 -40 -38 -60 -66&#xA;-60 -81 0 -15 -15 -37 -40 -59 -26 -23 -40 -44 -40 -60 0 -16 -14 -37 -40 -60&#xA;-26 -23 -40 -44 -40 -60 0 -16 -14 -37 -40 -60 -25 -22 -40 -44 -40 -59 0 -15&#xA;-20 -43 -60 -81 -40 -38 -60 -66 -60 -81 0 -15 -15 -37 -40 -59 -25 -22 -40&#xA;-44 -40 -59 0 -15 -20 -43 -60 -81 -40 -38 -60 -66 -60 -81 0 -15 -15 -37 -40&#xA;-59 -26 -23 -40 -44 -40 -60 0 -16 -14 -37 -40 -60 -26 -23 -40 -44 -40 -60 0&#xA;-16 -14 -37 -40 -60 -26 -23 -40 -44 -40 -60 0 -16 -14 -37 -40 -60 -26 -23&#xA;-40 -44 -40 -60 0 -16 -14 -37 -40 -60 -26 -23 -40 -44 -40 -60 0 -16 -14 -37&#xA;-40 -60 -26 -23 -40 -44 -40 -60 0 -16 -14 -37 -40 -60 -26 -23 -40 -44 -40&#xA;-60 0 -16 -14 -37 -40 -60 -28 -25 -40 -43 -40 -62 0 -17 -8 -31 -20 -38 -12&#xA;-6 -20 -21 -20 -36 0 -26 -48 -84 -69 -84 -8 0 -11 -58 -11 -180 0 -122 3&#xA;-180 11 -180 21 0 69 -58 69 -84 0 -15 8 -30 20 -36 12 -7 20 -21 20 -38 0&#xA;-19 12 -37 40 -62 26 -23 40 -44 40 -60 0 -16 14 -37 40 -60 26 -23 40 -44 40&#xA;-60 0 -16 14 -37 40 -60 28 -25 40 -43 40 -62 0 -17 8 -31 20 -38 12 -7 20&#xA;-21 20 -38 0 -19 12 -37 40 -62 25 -22 40 -44 40 -58 0 -14 19 -42 50 -72 49&#xA;-50 49 -50 114 -50 55 0 67 -3 76 -20 10 -19 21 -20 160 -20 139 0 150 -1 160&#xA;-20 10 -19 21 -20 200 -20 179 0 190 -1 200 -20 10 -19 21 -20 220 -20 199 0&#xA;210 -1 220 -20 10 -18 21 -20 120 -20 99 0 110 -2 120 -20 10 -19 21 -20 160&#xA;-20 139 0 150 -1 160 -20 10 -19 21 -20 200 -20 177 0 190 -1 200 -19 8 -15&#xA;23 -21 63 -23 l52 -3 3 -52 c3 -44 0 -53 -17 -63 -18 -9 -21 -20 -21 -80 0&#xA;-59 -3 -71 -20 -80 -18 -9 -20 -21 -20 -100 0 -79 -2 -91 -20 -100 -17 -9 -20&#xA;-21 -20 -80 0 -59 -3 -71 -20 -80 -17 -9 -20 -21 -20 -80 0 -59 -3 -71 -20&#xA;-80 -17 -9 -20 -21 -20 -80 0 -59 -3 -71 -20 -80 -17 -9 -20 -21 -20 -80 0&#xA;-59 -3 -71 -20 -80 -17 -9 -20 -21 -20 -80 0 -59 -3 -71 -20 -80 -18 -9 -20&#xA;-21 -20 -100 0 -79 -2 -91 -20 -100 -16 -8 -20 -21 -20 -60 0 -39 -4 -52 -20&#xA;-60 -17 -9 -20 -21 -20 -80 0 -59 -3 -71 -20 -80 -18 -9 -20 -21 -20 -100 0&#xA;-79 -2 -91 -20 -100 -17 -9 -20 -21 -20 -80 0 -59 -3 -71 -20 -80 -17 -9 -20&#xA;-21 -20 -80 0 -59 -3 -71 -20 -80 -18 -9 -20 -21 -20 -100 0 -79 -2 -91 -20&#xA;-100 -16 -8 -20 -21 -20 -60 0 -39 -4 -52 -20 -60 -17 -9 -20 -21 -20 -80 0&#xA;-59 -3 -71 -20 -80 -18 -9 -20 -21 -20 -100 0 -79 -2 -91 -20 -100 -16 -8 -20&#xA;-21 -20 -60 0 -39 -4 -52 -20 -60 -17 -9 -20 -21 -20 -80 0 -59 -3 -71 -20&#xA;-80 -18 -9 -20 -21 -20 -100 0 -79 -2 -91 -20 -100 -17 -9 -20 -21 -20 -80 0&#xA;-59 -3 -71 -20 -80 -17 -9 -20 -21 -20 -80 0 -59 -3 -71 -20 -80 -17 -9 -20&#xA;-21 -20 -80 0 -59 -3 -71 -20 -80 -17 -9 -20 -21 -20 -80 0 -59 -3 -71 -20&#xA;-80 -17 -9 -20 -21 -20 -80 0 -59 -3 -71 -20 -80 -18 -9 -20 -21 -20 -100 0&#xA;-79 -2 -91 -20 -100 -16 -8 -20 -21 -20 -60 0 -39 -4 -52 -20 -60 -17 -9 -20&#xA;-21 -20 -80 0 -59 -3 -71 -20 -80 -18 -9 -20 -21 -20 -100 0 -79 -2 -91 -20&#xA;-100 -17 -9 -20 -21 -20 -80 0 -59 -3 -71 -20 -80 -17 -9 -20 -21 -20 -80 0&#xA;-59 -3 -71 -20 -80 -18 -9 -20 -21 -20 -100 0 -79 -2 -91 -20 -100 -16 -8 -20&#xA;-21 -20 -60 0 -39 -4 -52 -20 -60 -18 -9 -20 -21 -20 -100 0 -79 -2 -91 -20&#xA;-100 -18 -9 -20 -21 -20 -100 0 -79 -2 -91 -20 -100 -16 -8 -20 -21 -20 -60 0&#xA;-39 -4 -52 -20 -60 -18 -9 -20 -21 -20 -100 0 -79 -2 -91 -20 -100 -18 -9 -20&#xA;-21 -20 -100 0 -79 -2 -91 -20 -100 -16 -8 -20 -21 -20 -60 0 -39 -4 -52 -20&#xA;-60 -18 -9 -20 -21 -20 -100 0 -79 -2 -91 -20 -100 -18 -9 -20 -21 -20 -100 0&#xA;-79 2 -91 20 -100 12 -7 20 -21 20 -38 0 -19 12 -37 40 -62 28 -25 40 -43 40&#xA;-62 0 -17 8 -31 20 -38 12 -7 20 -21 20 -38 0 -19 12 -37 40 -62 26 -23 40&#xA;-44 40 -60 0 -16 14 -37 40 -60 28 -25 40 -43 40 -62 0 -17 8 -31 20 -38 12&#xA;-7 20 -21 20 -38 0 -19 12 -37 40 -62 25 -22 40 -44 40 -59 0 -15 20 -43 60&#xA;-81 37 -36 60 -66 60 -80 0 -31 52 -80 85 -80 18 0 29 -6 32 -20 5 -18 14 -20&#xA;83 -20 69 0 78 2 83 20 3 14 14 20 31 20 34 0 246 208 246 241 0 13 24 44 60&#xA;79 38 36 60 66 60 80 0 14 28 49 80 100 52 51 80 86 80 100 0 14 22 44 60 80&#xA;38 37 60 66 60 80 0 14 22 43 60 80 38 36 60 66 60 80 0 14 28 49 80 100 51&#xA;50 80 86 80 100 0 14 29 50 80 100 52 51 80 86 80 100 0 14 22 44 60 80 38 37&#xA;60 66 60 80 0 14 22 43 60 80 38 37 60 66 60 80 0 14 22 43 60 80 38 37 60 66&#xA;60 80 0 14 22 43 60 80 38 37 60 66 60 80 0 14 22 43 60 80 38 36 60 66 60 80&#xA;0 14 28 49 80 100 52 51 80 86 80 100 0 14 22 44 60 80 38 37 60 66 60 80 0&#xA;14 22 43 60 80 38 37 60 66 60 80 0 14 22 43 60 80 38 37 60 66 60 80 0 14 22&#xA;43 60 80 38 37 60 66 60 80 0 14 22 43 60 80 38 37 60 66 60 80 0 14 22 43 60&#xA;80 38 37 60 66 60 80 0 14 22 43 60 80 38 37 60 66 60 80 0 14 22 43 60 80 40&#xA;38 60 66 60 81 0 15 15 37 40 59 25 22 40 44 40 59 0 15 20 43 60 81 38 37 60&#xA;66 60 80 0 14 22 43 60 80 38 37 60 66 60 80 0 14 22 43 60 80 38 37 60 66 60&#xA;80 0 14 22 43 60 80 38 37 60 66 60 80 0 14 22 43 60 80 40 38 60 66 60 81 0&#xA;15 15 37 40 59 25 22 40 44 40 59 0 15 20 43 60 81 40 38 60 66 60 81 0 15 15&#xA;37 40 59 25 22 40 44 40 59 0 15 20 43 60 81 40 38 60 66 60 81 0 15 15 37 40&#xA;59 25 22 40 44 40 59 0 15 20 43 60 81 38 37 60 66 60 80 0 14 22 43 60 80 40&#xA;38 60 66 60 81 0 15 15 37 40 59 25 22 40 44 40 59 0 15 20 43 60 81 43 41 60&#xA;65 60 84 0 15 8 30 20 36 12 6 20 21 20 36 0 19 17 43 60 84 40 38 60 66 60&#xA;81 0 15 15 37 40 59 25 22 40 44 40 59 0 15 20 43 60 81 40 38 60 66 60 81 0&#xA;15 15 37 40 59 26 23 40 44 40 60 0 16 14 37 40 60 26 23 40 44 40 60 0 16 14&#xA;37 40 60 25 22 40 44 40 59 0 15 20 43 60 81 43 41 60 65 60 84 0 15 8 30 20&#xA;36 12 6 20 21 20 36 0 19 17 43 60 84 40 38 60 66 60 81 0 15 15 37 40 59 26&#xA;23 40 44 40 60 0 16 14 37 40 60 26 23 40 44 40 60 0 16 14 37 40 60 26 23 40&#xA;44 40 60 0 16 14 37 40 60 26 23 40 44 40 60 0 16 14 37 40 60 26 23 40 44 40&#xA;60 0 16 14 37 40 60 26 23 40 44 40 60 0 16 14 37 40 60 26 23 40 44 40 60 0&#xA;16 14 37 40 60 26 23 40 44 40 60 0 16 14 37 40 60 26 23 40 44 40 60 0 16 14&#xA;37 40 60 28 25 40 43 40 62 0 17 8 31 20 38 12 7 20 21 20 38 0 19 12 37 40&#xA;62 26 23 40 44 40 60 0 16 14 37 40 60 26 23 40 44 40 60 0 16 14 37 40 60 26&#xA;23 40 44 40 60 0 16 14 37 40 60 28 25 40 43 40 62 0 17 8 31 20 38 12 7 20&#xA;21 20 38 0 19 12 37 40 62 26 23 40 44 40 60 0 16 14 37 40 60 26 23 40 44 40&#xA;60 0 16 14 37 40 60 26 23 40 44 40 60 0 16 14 37 40 60 28 25 40 43 40 62 0&#xA;17 8 31 20 38 12 7 20 21 20 38 0 19 12 37 40 62 28 25 40 43 40 62 0 17 8 31&#xA;20 38 12 7 20 21 20 38 0 19 12 37 40 62 28 25 40 43 40 62 0 17 8 31 20 38&#xA;12 7 20 21 20 38 0 19 12 37 40 62 28 25 40 43 40 62 0 17 8 31 20 38 12 6 20&#xA;21 20 36 0 26 48 84 69 84 7 0 11 41 11 119 0 110 -1 119 -20 124 -14 4 -20&#xA;14 -20 34 0 20 -11 38 -40 63 -28 25 -40 43 -40 62 0 17 -8 31 -20 38 -12 7&#xA;-20 21 -20 38 0 19 -12 37 -40 62 -26 23 -40 44 -40 60 0 16 -14 37 -40 60&#xA;-28 25 -40 43 -40 62 0 17 -8 31 -20 38 -12 7 -20 21 -20 38 0 19 -12 37 -40&#xA;62 -25 22 -40 44 -40 58 0 31 -50 80 -86 84 -27 3 -29 6 -34 58 -5 54 -6 55&#xA;-37 58 -20 2 -37 11 -43 23 -8 15 -21 19 -60 19 -39 0 -52 4 -60 20 -9 18 -21&#xA;20 -100 20 -79 0 -91 2 -100 20 -9 18 -21 20 -100 20 -79 0 -91 2 -100 20 -9&#xA;17 -21 20 -80 20 -59 0 -71 3 -80 20 -10 18 -21 20 -120 20 -99 0 -110 2 -120&#xA;20 -9 18 -21 20 -100 20 -78 0 -91 2 -100 20 -9 17 -23 20 -103 22 l-92 3 -3&#xA;32 c-2 24 2 34 17 43 19 10 21 20 21 120 0 99 2 110 20 120 18 10 20 21 20&#xA;120 0 99 2 110 20 120 17 9 20 21 20 80 0 59 3 71 20 80 18 10 20 21 20 120 0&#xA;99 2 110 20 120 18 10 20 21 20 120 0 99 2 110 20 120 17 9 20 21 20 80 0 59&#xA;3 71 20 80 18 10 20 21 20 120 0 99 2 110 20 120 18 10 20 21 20 140 0 119 2&#xA;130 20 140 17 9 20 21 20 80 0 59 3 71 20 80 18 10 20 21 20 120 0 99 2 110&#xA;20 120 18 10 20 21 20 120 0 99 2 110 20 120 17 9 20 21 20 80 0 59 3 71 20&#xA;80 18 10 20 21 20 120 0 99 2 110 20 120 18 10 20 21 20 140 0 119 2 130 20&#xA;140 17 9 20 21 20 80 0 59 3 71 20 80 18 10 20 21 20 120 0 99 2 110 20 120&#xA;18 10 20 21 20 140 0 119 2 130 20 140 17 9 20 21 20 80 0 59 3 71 20 80 18&#xA;10 20 21 20 120 0 99 2 110 20 120 18 10 20 21 20 140 0 119 2 130 20 140 18&#xA;9 20 21 20 100 0 79 2 91 20 100 18 10 20 21 20 120 0 99 2 110 20 120 18 10&#xA;20 21 20 140 0 119 2 130 20 140 18 10 20 21 20 120 0 99 2 110 20 120 18 10&#xA;20 21 20 120 0 99 2 110 20 120 18 10 20 21 20 140 0 119 2 130 20 140 17 9&#xA;20 21 20 80 0 59 3 71 20 80 18 10 20 21 20 120 0 99 2 110 20 120 18 10 20&#xA;21 20 120 0 99 2 110 20 120 17 9 20 21 20 80 0 59 3 71 20 80 18 10 20 21 20&#xA;120 0 99 2 110 20 120 18 10 20 21 20 140 0 119 2 130 20 140 17 9 20 21 20&#xA;80 0 59 3 71 20 80 18 10 20 21 20 120 0 99 2 110 20 120 18 10 20 21 20 120&#xA;0 99 2 110 20 120 17 9 20 21 20 80 0 59 3 71 20 80 18 10 20 21 20 120 0 99&#xA;2 110 20 120 18 10 20 21 20 120 0 99 2 110 20 120 17 9 20 21 20 80 0 59 3&#xA;71 20 80 18 10 20 21 20 120 0 99 2 110 20 120 18 10 20 21 20 140 0 119 2&#xA;130 20 140 17 9 20 21 20 80 0 59 3 71 20 80 18 10 20 21 20 120 0 99 2 110&#xA;20 120 18 10 20 21 20 120 0 99 2 110 20 120 18 10 20 21 20 117 l0 106 -39&#xA;36 c-25 23 -40 47 -43 66 -3 26 -8 30 -37 33 -23 2 -35 9 -38 23 -5 17 -15 19&#xA;-83 19 -68 0 -78 -2 -83 -19z m-397 -1496 c0 -64 -3 -76 -20 -85 -17 -9 -20&#xA;-21 -20 -80 0 -59 -3 -71 -20 -80 -17 -9 -20 -21 -20 -80 0 -59 -3 -71 -20&#xA;-80 -18 -9 -20 -21 -20 -100 0 -79 -2 -91 -20 -100 -16 -8 -20 -21 -20 -60 0&#xA;-39 -4 -52 -20 -60 -18 -9 -20 -21 -20 -100 0 -79 -2 -91 -20 -100 -18 -9 -20&#xA;-21 -20 -100 0 -79 -2 -91 -20 -100 -16 -8 -20 -21 -20 -60 0 -39 -4 -52 -20&#xA;-60 -17 -9 -20 -21 -20 -80 0 -59 -3 -71 -20 -80 -18 -9 -20 -21 -20 -100 0&#xA;-79 -2 -91 -20 -100 -16 -8 -20 -21 -20 -60 0 -39 -4 -52 -20 -60 -18 -9 -20&#xA;-21 -20 -100 0 -79 -2 -91 -20 -100 -18 -9 -20 -21 -20 -100 0 -79 -2 -91 -20&#xA;-100 -16 -8 -20 -21 -20 -60 0 -39 -4 -52 -20 -60 -17 -9 -20 -21 -20 -80 0&#xA;-59 -3 -71 -20 -80 -18 -9 -20 -21 -20 -100 0 -79 -2 -91 -20 -100 -16 -8 -20&#xA;-21 -20 -60 0 -39 -4 -52 -20 -60 -18 -9 -20 -21 -20 -100 0 -79 -2 -91 -20&#xA;-100 -18 -9 -20 -21 -20 -100 0 -79 -2 -91 -20 -100 -16 -8 -20 -21 -20 -60 0&#xA;-39 -4 -52 -20 -60 -15 -8 -20 -23 -22 -68 -3 -52 -5 -57 -28 -60 -14 -2 -32&#xA;-10 -40 -17 -8 -7 -31 -15 -50 -17 l-35 -3 -3 -93 c-3 -86 -1 -94 17 -99 45&#xA;-11 32 -59 -17 -65 -26 -3 -27 -6 -30 -64 -3 -55 -6 -62 -29 -73 -26 -12 -26&#xA;-12 -20 -100 5 -88 5 -89 -20 -100 -26 -12 -26 -13 -19 -94 3 -45 9 -94 12&#xA;-108 5 -23 1 -28 -25 -37 l-31 -11 5 -71 c4 -69 4 -71 -22 -81 -25 -9 -26 -11&#xA;-20 -77 4 -37 10 -86 13 -108 6 -39 5 -42 -24 -52 l-30 -10 -1 -109 c-1 -95&#xA;-4 -110 -21 -123 -16 -12 -19 -25 -17 -75 3 -52 0 -63 -21 -82 -23 -21 -23&#xA;-25 -17 -121 7 -90 6 -102 -13 -128 -26 -37 -38 -172 -15 -181 7 -3 22 2 33&#xA;12 18 17 20 16 50 -13 33 -33 37 -58 17 -87 -10 -12 -22 -16 -40 -13 -15 3&#xA;-27 1 -27 -3 0 -5 -7 -9 -16 -9 -10 0 -13 6 -9 19 4 13 0 20 -14 24 -34 9 -46&#xA;-9 -44 -63 2 -43 -2 -55 -21 -73 -20 -20 -23 -32 -23 -107 -1 -74 -3 -86 -22&#xA;-98 -19 -13 -21 -24 -21 -103 0 -78 -2 -90 -20 -99 -17 -9 -20 -21 -20 -80 0&#xA;-59 -3 -71 -20 -80 -17 -9 -20 -21 -20 -80 0 -59 -3 -71 -20 -80 -18 -9 -20&#xA;-21 -20 -100 0 -79 -2 -91 -20 -100 -16 -8 -20 -21 -20 -60 0 -39 -4 -52 -20&#xA;-60 -18 -9 -20 -21 -20 -100 0 -79 -2 -91 -20 -100 -17 -9 -20 -21 -20 -80 0&#xA;-59 -3 -71 -20 -80 -17 -9 -20 -21 -20 -80 0 -59 -3 -71 -20 -80 -18 -9 -20&#xA;-21 -20 -100 0 -79 -2 -91 -20 -100 -18 -10 -20 -21 -20 -120 0 -99 -2 -110&#xA;-20 -120 -17 -9 -20 -21 -20 -80 0 -59 -3 -71 -20 -80 -18 -10 -20 -21 -20&#xA;-120 0 -99 -2 -110 -20 -120 -18 -10 -20 -21 -20 -120 0 -99 -2 -110 -20 -120&#xA;-16 -8 -20 -21 -20 -60 0 -39 -4 -52 -20 -60 -18 -10 -20 -21 -20 -120 0 -99&#xA;-2 -110 -20 -120 -18 -10 -20 -21 -20 -120 0 -100 -2 -110 -20 -120 -19 -10&#xA;-21 -19 -18 -83 l3 -72 35 -5 c31 -4 36 -9 40 -40 4 -31 9 -35 37 -38 20 -2&#xA;37 -11 43 -23 10 -17 22 -19 120 -19 99 0 110 -2 120 -20 10 -18 21 -20 120&#xA;-20 99 0 110 -2 120 -20 8 -16 21 -20 60 -20 39 0 52 -4 60 -20 10 -18 21 -20&#xA;120 -20 99 0 110 -2 120 -20 10 -18 21 -20 120 -20 99 0 110 -2 120 -20 9 -18&#xA;21 -20 100 -20 79 0 91 -2 100 -20 10 -18 21 -20 120 -20 99 0 110 -2 120 -20&#xA;9 -17 21 -20 80 -20 59 0 71 -3 80 -20 9 -17 21 -20 80 -20 59 0 71 -3 80 -20&#xA;6 -11 17 -20 25 -20 26 0 16 -24 -25 -60 -28 -25 -40 -43 -40 -62 0 -17 -8&#xA;-31 -20 -38 -12 -7 -20 -21 -20 -38 0 -19 -12 -37 -40 -62 -26 -23 -40 -44&#xA;-40 -60 0 -16 -14 -37 -40 -60 -28 -25 -40 -43 -40 -62 0 -17 -8 -31 -20 -38&#xA;-12 -7 -20 -21 -20 -38 0 -19 -12 -37 -40 -62 -28 -25 -40 -43 -40 -62 0 -17&#xA;-8 -31 -20 -38 -12 -7 -20 -21 -20 -38 0 -19 -12 -37 -40 -62 -26 -23 -40 -44&#xA;-40 -60 0 -16 -14 -37 -40 -60 -26 -23 -40 -44 -40 -60 0 -16 -14 -37 -40 -60&#xA;-26 -23 -40 -44 -40 -60 0 -16 -14 -37 -40 -60 -28 -25 -40 -43 -40 -62 0 -17&#xA;-8 -31 -20 -38 -12 -7 -20 -21 -20 -38 0 -19 -12 -37 -40 -62 -26 -23 -40 -44&#xA;-40 -60 0 -16 -14 -37 -40 -60 -26 -23 -40 -44 -40 -60 0 -16 -14 -37 -40 -60&#xA;-26 -23 -40 -44 -40 -60 0 -16 -14 -37 -40 -60 -26 -23 -40 -44 -40 -60 0 -16&#xA;-14 -37 -40 -60 -26 -23 -40 -44 -40 -60 0 -16 -14 -37 -40 -60 -26 -23 -40&#xA;-44 -40 -60 0 -16 -14 -37 -40 -60 -26 -23 -40 -44 -40 -60 0 -16 -14 -37 -40&#xA;-60 -26 -23 -40 -44 -40 -60 0 -16 -14 -37 -40 -60 -26 -23 -40 -44 -40 -60 0&#xA;-16 -14 -37 -40 -60 -26 -23 -40 -44 -40 -60 0 -16 -14 -37 -40 -60 -26 -23&#xA;-40 -44 -40 -60 0 -16 -14 -37 -40 -60 -26 -23 -40 -44 -40 -60 0 -16 -14 -37&#xA;-40 -60 -25 -22 -40 -44 -40 -59 0 -15 -20 -43 -60 -81 -40 -38 -60 -66 -60&#xA;-81 0 -15 -15 -37 -40 -59 -26 -23 -40 -44 -40 -60 0 -16 -14 -37 -40 -60 -26&#xA;-23 -40 -44 -40 -60 0 -16 -14 -37 -40 -60 -25 -22 -40 -44 -40 -59 0 -15 -20&#xA;-43 -60 -81 -40 -38 -60 -66 -60 -81 0 -15 -15 -37 -40 -59 -26 -23 -40 -44&#xA;-40 -60 0 -16 -14 -37 -40 -60 -25 -22 -40 -44 -40 -59 0 -15 -20 -43 -60 -81&#xA;-40 -38 -60 -66 -60 -81 0 -15 -15 -37 -40 -59 -25 -22 -40 -44 -40 -59 0 -15&#xA;-20 -43 -60 -81 -40 -38 -60 -66 -60 -81 0 -15 -15 -37 -40 -59 -26 -23 -40&#xA;-44 -40 -60 0 -16 -14 -37 -40 -60 -25 -22 -40 -44 -40 -59 0 -15 -20 -43 -60&#xA;-81 -38 -37 -60 -66 -60 -80 0 -14 -22 -43 -60 -80 -40 -38 -60 -66 -60 -81 0&#xA;-15 -15 -37 -40 -59 -25 -22 -40 -44 -40 -59 0 -15 -20 -43 -60 -81 -38 -37&#xA;-60 -66 -60 -80 0 -14 -22 -43 -60 -80 -38 -37 -60 -66 -60 -80 0 -14 -22 -43&#xA;-60 -80 -40 -38 -60 -66 -60 -81 0 -15 -15 -37 -40 -59 -25 -22 -40 -44 -40&#xA;-59 0 -15 -20 -43 -60 -81 -38 -37 -60 -66 -60 -80 0 -14 -22 -43 -60 -80 -40&#xA;-38 -60 -66 -60 -81 0 -15 -15 -37 -40 -59 -25 -22 -40 -44 -40 -59 0 -15 -20&#xA;-43 -60 -81 -38 -37 -60 -66 -60 -80 0 -14 -22 -43 -60 -80 -38 -37 -60 -66&#xA;-60 -80 0 -14 -22 -43 -60 -80 -38 -37 -60 -66 -60 -80 0 -14 -22 -43 -60 -80&#xA;-38 -37 -60 -66 -60 -80 0 -14 -22 -43 -60 -80 -38 -37 -60 -66 -60 -80 0 -14&#xA;-22 -43 -60 -80 -38 -36 -60 -66 -60 -80 0 -14 -28 -49 -80 -100 -52 -51 -80&#xA;-86 -80 -100 0 -14 -22 -44 -60 -80 -38 -36 -60 -66 -60 -80 0 -14 -28 -49&#xA;-80 -100 -52 -51 -80 -86 -80 -100 0 -14 -22 -44 -60 -80 -38 -37 -60 -66 -60&#xA;-80 0 -14 -22 -43 -60 -80 -38 -37 -60 -66 -60 -80 0 -14 -22 -43 -60 -80 -38&#xA;-37 -60 -66 -60 -80 0 -14 -22 -43 -60 -80 -38 -36 -60 -66 -60 -80 0 -14 -28&#xA;-49 -80 -100 -52 -51 -80 -86 -80 -100 0 -14 -22 -44 -60 -80 -38 -36 -60 -66&#xA;-60 -80 0 -14 -28 -49 -80 -100 -51 -50 -80 -86 -80 -100 0 -14 -29 -50 -80&#xA;-100 -52 -51 -80 -86 -80 -100 0 -14 -22 -44 -60 -80 -38 -37 -60 -66 -60 -80&#xA;0 -14 -22 -43 -60 -80 -40 -38 -60 -66 -60 -81 -1 -28 -53 -84 -69 -74 -18 11&#xA;-12 59 9 78 16 14 20 29 20 82 0 54 3 66 20 75 16 8 20 21 20 60 0 39 4 52 20&#xA;60 18 9 20 21 20 100 0 79 2 91 20 100 18 9 20 21 20 100 0 79 2 91 20 100 16&#xA;8 20 21 20 60 0 39 4 52 20 60 18 9 20 21 20 100 0 79 2 91 20 100 17 9 20 21&#xA;20 80 0 59 3 71 20 80 17 9 20 21 20 80 0 59 3 71 20 80 17 9 20 21 20 80 0&#xA;59 3 71 20 80 18 9 20 21 20 100 0 79 2 91 20 100 16 8 20 21 20 60 0 39 4 52&#xA;20 60 18 9 20 21 20 100 0 79 2 91 20 100 17 9 20 21 20 80 0 59 3 71 20 80&#xA;16 8 20 21 20 60 0 39 4 52 20 60 18 9 20 21 20 100 0 79 2 91 20 100 18 9 20&#xA;21 20 100 0 79 2 91 20 100 16 8 20 21 20 60 0 39 4 52 20 60 17 9 20 21 20&#xA;80 0 59 3 71 20 80 18 9 20 21 20 100 0 79 2 91 20 100 16 8 20 21 20 60 0 39&#xA;4 52 20 60 18 9 20 21 20 100 0 79 2 91 20 100 17 9 20 21 20 80 0 59 3 71 20&#xA;80 16 8 20 21 20 60 0 39 4 52 20 60 18 9 20 21 20 100 0 79 2 91 20 100 17 9&#xA;20 21 20 80 0 59 3 71 20 80 17 9 20 21 20 80 0 59 3 71 20 80 18 9 20 21 20&#xA;100 0 79 2 91 20 100 17 9 20 21 20 80 0 59 3 71 20 80 16 8 20 21 20 60 0 39&#xA;4 52 20 60 18 9 20 21 20 100 0 79 2 91 20 100 17 9 20 21 20 80 0 59 3 71 20&#xA;80 17 9 20 21 20 80 0 59 3 71 20 80 17 9 20 21 20 80 0 59 3 71 20 80 17 9&#xA;20 21 20 80 0 59 3 71 20 80 17 9 20 21 20 80 0 59 3 71 20 80 18 9 20 21 20&#xA;100 0 79 2 91 20 100 17 9 20 21 20 80 0 59 3 71 20 80 17 9 20 21 20 80 0 59&#xA;3 71 20 80 18 10 20 21 20 120 0 99 2 110 20 120 17 9 20 21 20 80 0 59 3 71&#xA;20 80 17 9 20 21 20 80 0 59 3 71 20 80 18 9 20 21 20 100 0 80 2 90 20 100&#xA;19 10 21 19 18 83 l-3 72 -55 5 c-54 5 -55 6 -60 40 l-5 35 -72 3 c-60 2 -75&#xA;6 -83 22 -10 19 -23 20 -258 20 -236 0 -248 -1 -260 -20 -20 -33 -40 -25 -44&#xA;18 l-3 37 -112 3 c-100 2 -114 5 -123 22 -10 19 -22 20 -220 20 -199 0 -210 1&#xA;-220 20 -10 19 -21 20 -198 20 -176 0 -188 -1 -200 -20 -20 -33 -40 -25 -44&#xA;18 l-3 37 -92 3 c-80 2 -94 5 -103 22 -10 19 -22 20 -240 20 -219 0 -230 1&#xA;-240 20 -10 19 -21 20 -236 20 -219 0 -226 -1 -243 -22 -22 -26 -41 -16 -41&#xA;22 0 19 7 33 20 40 12 7 20 21 20 38 0 19 12 37 40 62 28 25 40 43 40 62 0 17&#xA;8 31 20 38 12 7 20 21 20 38 0 19 12 37 40 62 25 22 40 44 40 59 0 15 20 43&#xA;60 81 43 41 60 65 60 84 0 15 8 30 20 36 12 7 20 21 20 38 0 19 12 37 40 62&#xA;25 22 40 44 40 59 0 15 20 43 60 81 40 38 60 66 60 81 0 15 15 37 40 59 26 23&#xA;40 44 40 60 0 16 14 37 40 60 26 23 40 44 40 60 0 16 14 37 40 60 25 22 40 44&#xA;40 59 0 15 20 43 60 81 40 38 60 66 60 81 0 15 15 37 40 59 26 23 40 44 40 60&#xA;0 16 14 37 40 60 25 22 40 44 40 59 0 15 20 43 60 81 40 38 60 66 60 81 0 15&#xA;15 37 40 59 25 22 40 44 40 59 0 15 20 43 60 81 40 38 60 66 60 81 0 15 15 37&#xA;40 59 26 23 40 44 40 60 0 16 14 37 40 60 25 22 40 44 40 59 0 15 20 43 60 81&#xA;38 37 60 66 60 80 0 14 22 43 60 80 40 38 60 66 60 81 0 15 15 37 40 59 25 22&#xA;40 44 40 59 0 15 20 43 60 81 38 37 60 66 60 80 0 14 22 43 60 80 40 38 60 66&#xA;60 81 0 15 15 37 40 59 26 23 40 44 40 60 0 16 14 37 40 60 25 22 40 44 40 59&#xA;0 15 20 43 60 81 40 38 60 66 60 81 0 15 15 37 40 59 25 22 40 44 40 59 0 15&#xA;20 43 60 81 38 37 60 66 60 80 0 14 22 43 60 80 38 37 60 66 60 80 0 14 22 43&#xA;60 80 40 38 60 66 60 81 0 15 15 37 40 59 25 22 40 44 40 59 0 15 20 43 60 81&#xA;40 38 60 66 60 81 0 15 15 37 40 59 25 22 40 44 40 59 0 15 20 43 60 81 38 37&#xA;60 66 60 80 0 14 22 43 60 80 40 38 60 66 60 81 0 15 15 37 40 59 25 22 40 44&#xA;40 59 0 15 20 43 60 81 38 37 60 66 60 80 0 14 22 43 60 80 38 37 60 66 60 80&#xA;0 14 22 43 60 80 40 38 60 66 60 81 0 15 15 37 40 59 25 22 40 44 40 59 0 15&#xA;20 43 60 81 38 37 60 66 60 80 0 14 22 43 60 80 40 38 60 66 60 81 0 15 15 37&#xA;40 59 25 22 40 44 40 59 0 15 20 43 60 81 38 37 60 66 60 80 0 14 22 43 60 80&#xA;40 38 60 66 60 81 0 15 15 37 40 59 25 22 40 44 40 59 0 15 20 43 60 81 38 37&#xA;60 66 60 80 0 14 22 43 60 80 38 37 60 66 60 80 0 14 22 43 60 80 40 38 60 66&#xA;60 81 0 15 15 37 40 59 25 22 40 44 40 59 0 15 20 43 60 81 38 37 60 66 60 80&#xA;0 14 22 43 60 80 40 38 60 66 60 81 0 15 15 37 40 59 25 22 40 44 40 59 0 15&#xA;20 43 60 81 40 38 60 66 60 81 0 15 15 37 40 59 25 22 40 44 40 59 0 15 20 43&#xA;60 81 38 37 60 66 60 80 0 14 22 43 60 80 38 37 60 66 60 80 0 14 22 43 60 80&#xA;38 37 60 66 60 80 0 14 22 43 60 80 38 37 60 66 60 80 0 14 22 43 60 80 40 38&#xA;60 66 60 81 0 15 15 37 40 59 25 22 40 44 40 59 0 15 20 43 60 81 38 37 60 66&#xA;60 80 0 14 22 43 60 80 40 38 60 66 60 81 0 15 15 37 40 59 25 22 40 44 40 59&#xA;0 15 20 43 60 81 40 38 60 66 60 81 0 15 15 37 40 59 25 22 40 44 40 59 0 15&#xA;20 43 60 81 38 37 60 66 60 80 0 14 22 43 60 80 38 37 60 66 60 80 0 14 22 43&#xA;60 80 40 38 60 66 60 81 0 15 15 37 40 59 25 22 40 44 40 59 0 15 20 43 60 81&#xA;38 37 60 66 60 80 0 14 22 43 60 80 40 38 60 66 60 81 0 15 15 37 40 59 26 23&#xA;40 44 40 60 0 16 14 37 40 60 25 22 40 44 40 59 0 15 20 43 60 81 38 37 60 66&#xA;60 80 0 14 22 43 60 80 40 38 60 66 60 81 0 15 15 37 40 59 25 22 40 44 40 59&#xA;0 15 20 43 60 81 38 36 60 66 60 80 0 24 47 80 67 80 9 0 13 -21 13 -75z&#xA;m-802 -3822 c4 -25 -22 -37 -38 -17 -10 11 -10 17 0 29 17 20 34 14 38 -12z&#xA;m-158 -178 c0 -16 -27 -32 -37 -22 -3 4 -3 13 0 22 8 20 37 20 37 0z m78 -221&#xA;c2 -12 -4 -24 -12 -27 -19 -7 -40 18 -32 39 8 22 40 13 44 -12z m-203 -344 c0&#xA;-7 -6 -15 -12 -17 -8 -3 -13 4 -13 17 0 13 5 20 13 18 6 -3 12 -11 12 -18z&#xA;m-5 -80 c0 -13 -7 -20 -20 -20 -25 0 -26 16 -2 29 23 14 22 14 22 -9z m-110&#xA;-560 c0 -11 -7 -20 -15 -20 -8 0 -15 9 -15 20 0 11 7 20 15 20 8 0 15 -9 15&#xA;-20z m45 -94 c0 -10 -7 -22 -15 -26 -8 -4 -29 -14 -47 -22 -30 -16 -43 -14&#xA;-43 4 0 4 7 8 15 8 8 0 22 14 30 31 18 35 60 39 60 5z m-135 -647 c0 -24 -23&#xA;-21 -28 4 -2 10 3 17 12 17 10 0 16 -9 16 -21z"></path>
    <path d="M6328 17070 c-55 -56 -88 -97 -88 -111 0 -13 -23 -44 -60 -79 -38&#xA;-37 -60 -66 -60 -80 0 -14 -22 -43 -60 -80 -40 -38 -60 -66 -60 -81 0 -15 -15&#xA;-37 -40 -59 -25 -22 -40 -44 -40 -59 0 -15 -20 -43 -60 -81 -40 -38 -60 -66&#xA;-60 -81 0 -15 -15 -37 -40 -59 -25 -22 -40 -44 -40 -59 0 -15 -20 -43 -60 -81&#xA;-38 -37 -60 -66 -60 -80 0 -14 -22 -43 -60 -80 -40 -38 -60 -66 -60 -81 0 -15&#xA;-15 -37 -40 -59 -26 -23 -40 -44 -40 -60 0 -16 -14 -37 -40 -60 -26 -23 -40&#xA;-44 -40 -60 0 -16 -14 -37 -40 -60 -25 -22 -40 -44 -40 -59 0 -15 -20 -43 -60&#xA;-81 -40 -38 -60 -66 -60 -81 0 -15 -15 -37 -40 -59 -25 -22 -40 -44 -40 -59 0&#xA;-15 -20 -43 -60 -81 -43 -41 -60 -65 -60 -84 0 -15 -8 -30 -20 -36 -12 -6 -20&#xA;-21 -20 -36 0 -19 -17 -43 -60 -84 -40 -38 -60 -66 -60 -81 0 -15 -15 -37 -40&#xA;-59 -28 -25 -40 -43 -40 -62 0 -17 -8 -31 -20 -38 -12 -7 -20 -21 -20 -38 0&#xA;-19 -12 -37 -40 -62 -25 -22 -40 -44 -40 -59 0 -15 -20 -43 -60 -81 -43 -41&#xA;-60 -65 -60 -84 0 -15 -8 -30 -20 -36 -12 -7 -20 -21 -20 -38 0 -19 -12 -37&#xA;-40 -62 -25 -22 -40 -44 -40 -59 0 -15 -20 -43 -60 -81 -43 -41 -60 -65 -60&#xA;-84 0 -15 -8 -30 -20 -36 -12 -7 -20 -21 -20 -38 0 -19 -12 -37 -40 -62 -26&#xA;-23 -40 -44 -40 -60 0 -16 -14 -37 -40 -60 -26 -23 -40 -44 -40 -60 0 -16 -14&#xA;-37 -40 -60 -26 -23 -40 -44 -40 -60 0 -16 -14 -37 -40 -60 -28 -25 -40 -43&#xA;-40 -62 0 -17 -8 -31 -20 -38 -12 -7 -20 -21 -20 -38 0 -19 -12 -37 -40 -62&#xA;-26 -22 -40 -44 -40 -59 0 -15 -15 -38 -41 -62 -38 -35 -40 -40 -37 -86 3 -47&#xA;4 -48 38 -53 34 -5 35 -6 40 -60 l5 -55 48 -3 c41 -3 51 1 76 26 16 16 31 42&#xA;33 58 2 23 8 30 31 32 37 4 247 211 247 242 0 14 43 64 120 140 79 78 120 126&#xA;120 140 0 14 36 56 100 120 64 64 100 106 100 120 0 14 41 62 120 140 80 79&#xA;120 126 120 141 0 13 23 43 60 79 38 36 60 66 60 80 0 14 28 49 80 100 52 51&#xA;80 86 80 100 0 14 22 44 60 80 38 37 60 66 60 80 0 14 22 43 60 80 40 38 60&#xA;66 60 81 0 15 15 37 40 59 25 22 40 44 40 59 0 15 20 43 60 81 40 38 60 66 60&#xA;81 0 15 15 37 40 59 26 23 40 44 40 60 0 16 14 37 40 60 28 25 40 43 40 62 0&#xA;17 8 31 20 38 12 7 20 21 20 38 0 19 12 37 40 62 28 25 40 43 40 62 0 17 8 31&#xA;20 38 13 7 20 21 20 40 0 19 7 33 20 40 12 7 20 21 20 38 0 19 12 37 40 62 28&#xA;25 40 43 40 62 0 17 8 31 20 38 12 7 20 21 20 38 0 19 12 37 40 62 28 25 40&#xA;43 40 62 0 17 8 31 20 38 13 7 20 21 20 40 0 19 7 33 20 40 12 7 20 21 20 38&#xA;0 19 12 37 40 62 28 25 40 43 40 62 0 17 8 31 20 38 13 7 20 21 20 40 0 19 7&#xA;33 20 40 13 7 20 21 20 40 0 19 7 33 20 40 13 7 20 21 20 40 0 19 7 33 20 40&#xA;13 7 20 21 20 40 0 19 7 33 20 40 13 7 20 21 20 40 0 19 7 33 20 40 13 7 20&#xA;21 20 40 0 19 7 33 20 40 13 7 20 21 20 40 0 19 7 33 20 40 13 7 20 21 20 40&#xA;0 19 7 33 21 40 17 10 20 19 17 63 l-3 52 -55 5 c-54 5 -55 6 -60 40 -5 34 -6&#xA;35 -55 37 l-50 2 -87 -89z"></path>
    <path d="M6888 9710 c-32 -32 -48 -58 -48 -74 0 -15 -8 -30 -20 -36 -18 -10&#xA;-20 -21 -20 -118 l0 -107 -40 -35 c-28 -25 -40 -43 -40 -62 0 -17 -8 -31 -20&#xA;-38 -12 -7 -20 -21 -20 -38 0 -19 -12 -37 -40 -62 -25 -22 -40 -44 -40 -59 0&#xA;-15 -20 -43 -60 -81 -43 -41 -60 -65 -60 -84 0 -15 -8 -30 -20 -36 -12 -7 -20&#xA;-21 -20 -38 0 -19 -12 -37 -40 -62 -25 -22 -40 -44 -40 -59 0 -15 -20 -43 -60&#xA;-81 -43 -41 -60 -65 -60 -84 0 -15 -8 -30 -20 -36 -12 -7 -20 -21 -20 -38 0&#xA;-19 -12 -37 -40 -62 -25 -22 -40 -44 -40 -59 0 -15 -20 -43 -60 -81 -43 -41&#xA;-60 -65 -60 -84 0 -15 -8 -30 -20 -36 -12 -6 -20 -21 -20 -36 0 -19 -17 -43&#xA;-60 -84 -40 -38 -60 -66 -60 -81 0 -15 -15 -37 -40 -59 -25 -22 -40 -44 -40&#xA;-59 0 -15 -20 -43 -60 -81 -38 -37 -60 -66 -60 -80 0 -14 -22 -43 -60 -80 -43&#xA;-41 -60 -65 -60 -84 0 -15 -8 -30 -20 -36 -12 -6 -20 -21 -20 -36 0 -19 -17&#xA;-43 -60 -84 -40 -38 -60 -66 -60 -81 0 -15 -15 -37 -40 -59 -25 -22 -40 -44&#xA;-40 -59 0 -15 -20 -43 -60 -81 -40 -38 -60 -66 -60 -81 0 -15 -15 -37 -40 -59&#xA;-26 -23 -40 -44 -40 -60 0 -16 -14 -37 -40 -60 -25 -22 -40 -44 -40 -59 0 -15&#xA;-20 -43 -60 -81 -40 -38 -60 -66 -60 -81 0 -15 -15 -37 -40 -59 -26 -23 -40&#xA;-44 -40 -60 0 -16 -14 -37 -40 -60 -26 -23 -40 -44 -40 -60 0 -16 -14 -37 -40&#xA;-60 -25 -22 -40 -44 -40 -59 0 -15 -20 -43 -60 -81 -40 -38 -60 -66 -60 -81 0&#xA;-15 -15 -37 -40 -59 -26 -23 -40 -44 -40 -60 0 -16 -14 -37 -40 -60 -26 -23&#xA;-40 -44 -40 -60 0 -16 -14 -37 -40 -60 -28 -25 -40 -43 -40 -62 0 -17 -8 -31&#xA;-21 -38 -17 -10 -20 -19 -17 -63 3 -49 4 -52 33 -55 19 -3 43 -18 66 -43 35&#xA;-38 40 -40 86 -37 47 3 48 4 53 38 4 30 9 35 34 38 36 4 86 52 86 82 0 14 23&#xA;44 60 80 38 37 60 66 60 80 0 14 22 43 60 80 38 37 60 66 60 80 0 14 22 43 60&#xA;80 38 37 60 66 60 80 0 14 22 43 60 80 38 37 60 66 60 80 0 14 22 43 60 80 38&#xA;37 60 66 60 80 0 14 22 43 60 80 38 37 60 66 60 80 0 14 22 43 60 80 38 37 60&#xA;66 60 80 0 14 22 43 60 80 38 37 60 66 60 80 0 14 22 43 60 80 40 38 60 66 60&#xA;81 0 15 15 37 40 59 25 22 40 44 40 59 0 15 20 43 60 81 40 38 60 66 60 81 0&#xA;15 15 37 40 59 26 23 40 44 40 60 0 16 14 37 40 60 25 22 40 44 40 59 0 15 20&#xA;43 60 81 38 37 60 66 60 80 0 14 22 43 60 80 43 41 60 65 60 84 0 15 8 30 20&#xA;36 12 7 20 21 20 38 0 19 12 37 40 62 26 23 40 44 40 60 0 16 14 37 40 60 28&#xA;25 40 43 40 62 0 17 8 31 20 38 12 7 20 21 20 38 0 19 12 37 40 62 28 25 40&#xA;43 40 62 0 17 8 31 20 38 12 7 20 21 20 38 0 19 12 37 40 62 26 23 40 44 40&#xA;60 0 16 14 37 40 60 26 23 40 44 40 60 0 16 14 37 40 60 28 25 40 43 40 62 0&#xA;17 8 31 20 38 12 7 20 21 20 38 0 19 12 37 40 62 28 25 40 43 40 62 0 17 8 31&#xA;20 38 12 7 20 21 20 38 0 19 12 37 40 62 35 31 40 40 40 80 0 40 5 49 40 80&#xA;39 34 40 36 40 102 0 58 3 69 21 78 17 10 20 19 17 63 -3 51 -4 52 -35 55 -20&#xA;2 -37 11 -43 23 -7 12 -21 19 -40 19 -19 0 -33 7 -40 20 -9 17 -21 20 -78 19&#xA;-67 0 -67 0 -114 -49z"></path>
    <path d="M6048 9110 c-55 -56 -88 -97 -88 -111 0 -13 -23 -44 -60 -79 -38 -37&#xA;-60 -66 -60 -80 0 -14 -22 -43 -60 -80 -40 -38 -60 -66 -60 -81 0 -15 -15 -37&#xA;-40 -59 -26 -23 -40 -44 -40 -60 0 -16 -14 -37 -40 -60 -28 -25 -40 -43 -40&#xA;-62 0 -17 -8 -31 -20 -38 -13 -7 -20 -21 -20 -40 0 -19 -7 -33 -20 -40 -12 -7&#xA;-20 -21 -20 -38 0 -19 -12 -37 -40 -62 -28 -25 -40 -43 -40 -62 0 -17 -8 -31&#xA;-20 -38 -13 -7 -20 -21 -20 -40 0 -19 -7 -33 -20 -40 -13 -7 -20 -21 -20 -40&#xA;0 -19 -7 -33 -20 -40 -13 -7 -20 -21 -20 -40 0 -19 -7 -33 -20 -40 -16 -8 -20&#xA;-21 -20 -60 0 -39 -4 -52 -20 -60 -13 -7 -20 -21 -20 -40 0 -19 -7 -33 -20&#xA;-40 -19 -10 -21 -19 -18 -83 l3 -72 35 -5 c34 -5 35 -6 40 -60 l5 -55 48 -3&#xA;c41 -3 51 1 76 26 16 16 31 42 33 58 2 24 8 30 33 32 33 4 45 16 45 47 0 11&#xA;18 36 40 55 28 25 40 43 40 62 0 17 8 31 20 38 12 7 20 21 20 38 0 19 12 37&#xA;40 62 26 23 40 44 40 60 0 16 14 37 40 60 26 23 40 44 40 60 0 16 14 37 40 60&#xA;28 25 40 43 40 62 0 17 8 31 20 38 12 7 20 21 20 38 0 19 12 37 40 62 28 25&#xA;40 43 40 62 0 17 8 31 20 38 12 7 20 21 20 38 0 19 12 37 40 62 28 25 40 43&#xA;40 62 0 17 8 31 20 38 13 7 20 21 20 40 0 19 7 33 20 40 12 7 20 21 20 38 0&#xA;19 12 37 40 62 28 25 40 43 40 62 0 17 8 31 20 38 13 7 20 21 20 40 0 19 7 33&#xA;20 40 13 7 20 21 20 40 0 19 7 33 21 40 17 10 20 19 17 63 -3 49 -4 52 -33 55&#xA;-19 3 -43 18 -66 43 -32 34 -41 39 -80 38 -42 0 -48 -5 -131 -89z"></path>
  </g>
</svg>